<svg xmlns="http://www.w3.org/2000/svg" width="640" height="360" viewBox="0 0 640 360" fill="none">
  <rect width="640" height="360" rx="24" fill="#FFF7ED"/>
  <circle cx="560" cy="40" r="100" fill="#FED7AA" fill-opacity="0.55"/>
  <circle cx="40" cy="320" r="80" fill="#FDBA74" fill-opacity="0.35"/>
  <text x="40" y="48" font-family="system-ui,sans-serif" font-size="22" fill="#9A3412" font-weight="700">&#1055;&#1083;&#1072;&#1085; &#1087;&#1086;&#1076;&#1075;&#1086;&#1090;&#1086;&#1074;&#1082;&#1080; &#1082; &#1045;&#1043;&#1069;</text>
  <text x="40" y="78" font-family="system-ui,sans-serif" font-size="15" fill="#C2410C">&#1089; &#1085;&#1091;&#1083;&#1103; &#183; &#1089; &#1089;&#1077;&#1085;&#1090;&#1103;&#1073;&#1088;&#1103; &#183; 10&#8211;12 &#1095;/&#1085;&#1077;&#1076;</text>
  <rect x="50" y="120" width="120" height="100" rx="16" fill="#FFEDD5" stroke="#EA580C" stroke-width="3"/>
  <text x="110" y="165" text-anchor="middle" font-family="system-ui,sans-serif" font-size="14" fill="#9A3412">1</text>
  <text x="110" y="195" text-anchor="middle" font-family="system-ui,sans-serif" font-size="16" fill="#7C2D12" font-weight="700">&#1076;&#1080;&#1072;&#1075;&#1085;&#1086;&#1089;&#1090;&#1080;&#1082;&#1072;</text>
  <path d="M180 170 H210" stroke="#EA580C" stroke-width="4"/>
  <polygon points="210,170 196,162 196,178" fill="#EA580C"/>
  <rect x="220" y="120" width="120" height="100" rx="16" fill="#FED7AA" stroke="#F97316" stroke-width="3"/>
  <text x="280" y="165" text-anchor="middle" font-family="system-ui,sans-serif" font-size="14" fill="#9A3412">2</text>
  <text x="280" y="195" text-anchor="middle" font-family="system-ui,sans-serif" font-size="16" fill="#7C2D12" font-weight="700">&#1087;&#1083;&#1072;&#1085;</text>
  <path d="M350 170 H380" stroke="#EA580C" stroke-width="4"/>
  <polygon points="380,170 366,162 366,178" fill="#EA580C"/>
  <rect x="390" y="120" width="120" height="100" rx="16" fill="#FB923C" stroke="#EA580C" stroke-width="3"/>
  <text x="450" y="165" text-anchor="middle" font-family="system-ui,sans-serif" font-size="14" fill="#FFF7ED">3</text>
  <text x="450" y="195" text-anchor="middle" font-family="system-ui,sans-serif" font-size="16" fill="#FFF7ED" font-weight="700">&#1060;&#1048;&#1055;&#1048;</text>
  <path d="M520 170 H545" stroke="#EA580C" stroke-width="4"/>
  <polygon points="545,170 531,162 531,178" fill="#EA580C"/>
  <rect x="550" y="135" width="50" height="70" rx="12" fill="#EA580C"/>
  <text x="575" y="178" text-anchor="middle" font-family="system-ui,sans-serif" font-size="18" fill="#FFF7ED" font-weight="700">&#10003;</text>
  <rect x="80" y="260" width="480" height="56" rx="14" fill="#9A3412"/>
  <text x="320" y="295" text-anchor="middle" font-family="system-ui,sans-serif" font-size="18" fill="#FFF7ED" font-weight="700">&#1089;&#1077;&#1085;&#1090;&#1103;&#1073;&#1088;&#1100; &#8594; &#1084;&#1072;&#1081; &#183; &#1084;&#1072;&#1088;&#1072;&#1092;&#1086;&#1085;, &#1085;&#1077; &#1089;&#1087;&#1088;&#1080;&#1085;&#1090;</text>
</svg>